<svg width="20" height="20" viewBox="0 0 20 20" fill="none" xmlns="http://www.w3.org/2000/svg">
<g clip-path="url(#clip0_3098_31175)">
<g filter="url(#filter0_ii_3098_31175)">
<path fill-rule="evenodd" clip-rule="evenodd" d="M1.46604 5.49545C1.3087 6.01242 1.12154 8.00439 1.11801 9.68189C1.10316 9.99396 1.09022 10.3354 1.07592 10.7126L1.00438 12.5945C0.887626 15.6655 3.11666 18.3255 6.1608 18.7479C8.49824 19.0721 10.8685 19.0837 13.2089 18.7822L13.4721 18.7483C13.7613 18.7111 13.9337 18.6889 14.0854 18.6613C16.9012 18.1502 18.9607 15.7167 18.9993 12.8552C19.0014 12.7011 18.9948 12.5275 18.9837 12.2363L18.9246 10.682C18.8893 9.75006 18.8624 9.04025 18.7936 8.45284C18.8123 7.89129 18.8137 7.34483 18.7529 6.98963C18.6361 6.30733 18.3705 5.59115 18.1432 5.15924C17.8123 4.53046 17.2764 3.88794 16.4457 3.88794C16.3681 3.80778 16.2932 3.73019 16.2207 3.65507C14.4172 1.78657 14.0894 1.447 10.212 1.0692C6.98539 0.754811 5.82771 1.58689 5.36579 2.05573C4.70113 1.99843 4.47429 2.2383 4.19133 2.53751C3.96357 2.77835 3.69946 3.05763 3.14141 3.25134C2.14999 3.59547 2.2429 4.30608 2.28497 4.62781L2.28618 4.63709C2.2 4.60607 1.69769 4.7343 1.46604 5.49545ZM11.2893 6.10406C12.8498 6.11589 14.698 6.1299 15.7705 5.96596C15.7705 5.96596 16.1513 7.42585 16.9875 8.26523C17.1891 8.46757 17.3362 8.68035 17.4453 8.90223C17.4855 9.37629 17.5106 9.99572 17.5438 10.8677L17.5969 12.2641C17.6092 12.5871 17.6141 12.7226 17.6125 12.8365C17.5829 15.0347 16.0008 16.9041 13.8377 17.2968C13.7257 17.3171 13.5912 17.3347 13.2707 17.376L13.0318 17.4067C10.8134 17.6924 8.56686 17.6815 6.35137 17.3741C4.01289 17.0497 2.30056 15.0063 2.39025 12.6472L2.45665 10.9006C2.52441 9.11837 2.55954 8.37238 2.7542 7.78072C2.87642 7.40922 3.04387 7.05945 3.25006 6.73767C3.39712 6.5785 3.5724 6.42891 3.78228 6.28899C3.97788 6.15859 4.20019 6.06014 4.44362 5.98735C4.41275 7.38896 4.75461 8.31361 4.96269 8.37306C5.13788 8.42311 5.38675 8.08632 5.71609 7.64065C5.8342 7.48082 5.96265 7.30699 6.10176 7.13198C6.3302 6.84459 6.70781 6.60323 7.24233 6.42337C7.35069 7.10294 7.54592 7.51787 7.68304 7.55705C7.85823 7.6071 8.10711 7.27031 8.43645 6.82463C8.55455 6.66481 8.68301 6.49098 8.82212 6.31597C8.88151 6.24126 8.95098 6.16965 9.03066 6.10144C9.1882 6.09003 9.35182 6.08142 9.52157 6.07571C9.75857 6.08987 9.98958 6.09841 10.212 6.09841C10.5435 6.09841 10.9079 6.10117 11.2893 6.10406Z" fill="#1C004F" style="fill:#1C004F;fill:color(display-p3 0.1098 0.0000 0.3098);fill-opacity:1;"/>
</g>
<path d="M8.59166 15.0652C8.42279 14.9737 8.23721 15.1163 8.33316 15.2827C8.66141 15.852 9.30479 16.2407 9.98342 16.2519C10.6965 16.2833 11.3616 15.8111 11.6169 15.1768C11.687 15.0027 11.4909 14.8924 11.34 15.004C11.1754 15.1258 11.0165 15.2291 10.8529 15.3057C10.0785 15.6786 9.30989 15.4546 8.59166 15.0652Z" fill="url(#paint0_linear_3098_31175)" fill-opacity="0.3"/>
<path d="M8.59166 15.0652C8.42279 14.9737 8.23721 15.1163 8.33316 15.2827C8.66141 15.852 9.30479 16.2407 9.98342 16.2519C10.6965 16.2833 11.3616 15.8111 11.6169 15.1768C11.687 15.0027 11.4909 14.8924 11.34 15.004C11.1754 15.1258 11.0165 15.2291 10.8529 15.3057C10.0785 15.6786 9.30989 15.4546 8.59166 15.0652Z" fill="white" fill-opacity="0.75" style="fill:white;fill-opacity:0.75;"/>
<path fill-rule="evenodd" clip-rule="evenodd" d="M11.2891 6.10294C12.8496 6.11477 14.6979 6.12878 15.7703 5.96484C15.7703 5.96484 16.1511 7.42473 16.9873 8.26411C17.1889 8.46645 17.336 8.67923 17.4451 8.90111C17.4853 9.37517 17.5105 9.9946 17.5436 10.8665L17.5967 12.263C17.609 12.586 17.6139 12.7215 17.6124 12.8354C17.5828 15.0336 16.0006 16.903 13.8376 17.2957C13.7255 17.316 13.5911 17.3335 13.2705 17.3748L13.0316 17.4056C10.8132 17.6913 8.56669 17.6804 6.35121 17.373C4.01273 17.0486 2.30039 15.0052 2.39009 12.646L2.45648 10.8995C2.52424 9.11725 2.55937 8.37126 2.75403 7.7796C2.87626 7.4081 3.04371 7.05833 3.24989 6.73654C3.39696 6.57738 3.57224 6.42779 3.78212 6.28787C3.97772 6.15747 4.20002 6.05902 4.44346 5.98623C4.41259 7.38784 4.75445 8.31249 4.96253 8.37194C5.13772 8.42199 5.38659 8.0852 5.71593 7.63952C5.83404 7.4797 5.96249 7.30587 6.1016 7.13086C6.33004 6.84347 6.70765 6.60211 7.24217 6.42225C7.35053 7.10182 7.54576 7.51675 7.68288 7.55593C7.85807 7.60598 8.10695 7.26919 8.43629 6.82351C8.55439 6.66369 8.68284 6.48986 8.82196 6.31485C8.88134 6.24014 8.95081 6.16853 9.0305 6.10031C9.18804 6.08891 9.35165 6.0803 9.5214 6.07459C9.75841 6.08875 9.98942 6.09729 10.2119 6.09729C10.5433 6.09729 10.9077 6.10005 11.2891 6.10294Z" fill="url(#paint1_linear_3098_31175)" fill-opacity="0.3"/>
<path fill-rule="evenodd" clip-rule="evenodd" d="M11.2891 6.10294C12.8496 6.11477 14.6979 6.12878 15.7703 5.96484C15.7703 5.96484 16.1511 7.42473 16.9873 8.26411C17.1889 8.46645 17.336 8.67923 17.4451 8.90111C17.4853 9.37517 17.5105 9.9946 17.5436 10.8665L17.5967 12.263C17.609 12.586 17.6139 12.7215 17.6124 12.8354C17.5828 15.0336 16.0006 16.903 13.8376 17.2957C13.7255 17.316 13.5911 17.3335 13.2705 17.3748L13.0316 17.4056C10.8132 17.6913 8.56669 17.6804 6.35121 17.373C4.01273 17.0486 2.30039 15.0052 2.39009 12.646L2.45648 10.8995C2.52424 9.11725 2.55937 8.37126 2.75403 7.7796C2.87626 7.4081 3.04371 7.05833 3.24989 6.73654C3.39696 6.57738 3.57224 6.42779 3.78212 6.28787C3.97772 6.15747 4.20002 6.05902 4.44346 5.98623C4.41259 7.38784 4.75445 8.31249 4.96253 8.37194C5.13772 8.42199 5.38659 8.0852 5.71593 7.63952C5.83404 7.4797 5.96249 7.30587 6.1016 7.13086C6.33004 6.84347 6.70765 6.60211 7.24217 6.42225C7.35053 7.10182 7.54576 7.51675 7.68288 7.55593C7.85807 7.60598 8.10695 7.26919 8.43629 6.82351C8.55439 6.66369 8.68284 6.48986 8.82196 6.31485C8.88134 6.24014 8.95081 6.16853 9.0305 6.10031C9.18804 6.08891 9.35165 6.0803 9.5214 6.07459C9.75841 6.08875 9.98942 6.09729 10.2119 6.09729C10.5433 6.09729 10.9077 6.10005 11.2891 6.10294Z" fill="white" fill-opacity="0.75" style="fill:white;fill-opacity:0.75;"/>
<g filter="url(#filter1_dddddiiii_3098_31175)">
<path d="M8.59139 15.0672C8.42252 14.9756 8.23694 15.1183 8.33289 15.2847C8.66114 15.8539 9.30451 16.2427 9.98315 16.2538C10.6962 16.2853 11.3614 15.8131 11.6167 15.1788C11.6867 15.0047 11.4906 14.8943 11.3398 15.006C11.1751 15.1278 11.0162 15.2311 10.8527 15.3076C10.0782 15.6806 9.30962 15.4566 8.59139 15.0672Z" fill="#4A3B66" style="fill:#4A3B66;fill:color(display-p3 0.2902 0.2314 0.4000);fill-opacity:1;"/>
</g>
<g filter="url(#filter2_ddddd_3098_31175)">
<path d="M13.2779 9.60519C14.305 9.09636 15.3083 8.59935 16.59 8.6909C18.6357 8.94212 18.9946 10.916 18.8151 11.9568C18.6357 12.9975 18.3127 14.6484 16.3029 15.1509C15.4762 15.3575 14.337 15.0589 13.0729 14.3972C12.634 14.1675 12.298 13.8976 11.9834 13.645C11.4105 13.1851 10.9087 12.7822 9.98649 12.7822V10.593C11.2839 10.593 12.2919 10.0936 13.2779 9.60519Z" fill="url(#paint2_linear_3098_31175)"/>
<path d="M13.2779 9.60519C14.305 9.09636 15.3083 8.59935 16.59 8.6909C18.6357 8.94212 18.9946 10.916 18.8151 11.9568C18.6357 12.9975 18.3127 14.6484 16.3029 15.1509C15.4762 15.3575 14.337 15.0589 13.0729 14.3972C12.634 14.1675 12.298 13.8976 11.9834 13.645C11.4105 13.1851 10.9087 12.7822 9.98649 12.7822V10.593C11.2839 10.593 12.2919 10.0936 13.2779 9.60519Z" fill="url(#paint3_linear_3098_31175)" fill-opacity="0.24" style="mix-blend-mode:overlay"/>
<path d="M13.2779 9.60519C14.305 9.09636 15.3083 8.59935 16.59 8.6909C18.6357 8.94212 18.9946 10.916 18.8151 11.9568C18.6357 12.9975 18.3127 14.6484 16.3029 15.1509C15.4762 15.3575 14.337 15.0589 13.0729 14.3972C12.634 14.1675 12.298 13.8976 11.9834 13.645C11.4105 13.1851 10.9087 12.7822 9.98649 12.7822V10.593C11.2839 10.593 12.2919 10.0936 13.2779 9.60519Z" fill="url(#paint4_linear_3098_31175)" fill-opacity="0.24" style="mix-blend-mode:overlay"/>
<path d="M13.2779 9.60519C14.305 9.09636 15.3083 8.59935 16.59 8.6909C18.6357 8.94212 18.9946 10.916 18.8151 11.9568C18.6357 12.9975 18.3127 14.6484 16.3029 15.1509C15.4762 15.3575 14.337 15.0589 13.0729 14.3972C12.634 14.1675 12.298 13.8976 11.9834 13.645C11.4105 13.1851 10.9087 12.7822 9.98649 12.7822V10.593C11.2839 10.593 12.2919 10.0936 13.2779 9.60519Z" fill="url(#paint5_linear_3098_31175)" fill-opacity="0.16" style="mix-blend-mode:plus-darker"/>
<path d="M6.69502 9.60519C5.66791 9.09636 4.66465 8.59935 3.38289 8.6909C1.33723 8.94212 0.978346 10.916 1.15779 11.9568C1.33723 12.9975 1.66023 14.6484 3.67 15.1509C4.49672 15.3575 5.63587 15.0589 6.89999 14.3972C7.33889 14.1675 7.67494 13.8976 7.98955 13.645C8.5624 13.1851 9.06424 12.7822 9.98649 12.7822V10.593C8.68906 10.593 7.68102 10.0936 6.69502 9.60519Z" fill="url(#paint6_linear_3098_31175)"/>
<path d="M6.69502 9.60519C5.66791 9.09636 4.66465 8.59935 3.38289 8.6909C1.33723 8.94212 0.978346 10.916 1.15779 11.9568C1.33723 12.9975 1.66023 14.6484 3.67 15.1509C4.49672 15.3575 5.63587 15.0589 6.89999 14.3972C7.33889 14.1675 7.67494 13.8976 7.98955 13.645C8.5624 13.1851 9.06424 12.7822 9.98649 12.7822V10.593C8.68906 10.593 7.68102 10.0936 6.69502 9.60519Z" fill="url(#paint7_linear_3098_31175)" fill-opacity="0.24" style="mix-blend-mode:overlay"/>
<path d="M6.69502 9.60519C5.66791 9.09636 4.66465 8.59935 3.38289 8.6909C1.33723 8.94212 0.978346 10.916 1.15779 11.9568C1.33723 12.9975 1.66023 14.6484 3.67 15.1509C4.49672 15.3575 5.63587 15.0589 6.89999 14.3972C7.33889 14.1675 7.67494 13.8976 7.98955 13.645C8.5624 13.1851 9.06424 12.7822 9.98649 12.7822V10.593C8.68906 10.593 7.68102 10.0936 6.69502 9.60519Z" fill="url(#paint8_linear_3098_31175)" fill-opacity="0.24" style="mix-blend-mode:overlay"/>
<path d="M6.69502 9.60519C5.66791 9.09636 4.66465 8.59935 3.38289 8.6909C1.33723 8.94212 0.978346 10.916 1.15779 11.9568C1.33723 12.9975 1.66023 14.6484 3.67 15.1509C4.49672 15.3575 5.63587 15.0589 6.89999 14.3972C7.33889 14.1675 7.67494 13.8976 7.98955 13.645C8.5624 13.1851 9.06424 12.7822 9.98649 12.7822V10.593C8.68906 10.593 7.68102 10.0936 6.69502 9.60519Z" fill="url(#paint9_linear_3098_31175)" fill-opacity="0.16" style="mix-blend-mode:plus-darker"/>
</g>
<path d="M4.9521 13.8685C6.029 13.8685 6.902 12.9955 6.902 11.9186C6.902 10.8417 6.029 9.96875 4.9521 9.96875C3.8752 9.96875 3.0022 10.8417 3.0022 11.9186C3.0022 12.9955 3.8752 13.8685 4.9521 13.8685Z" fill="white" style="fill:white;fill-opacity:1;"/>
<path d="M14.9482 13.8685C13.8713 13.8685 12.9983 12.9955 12.9983 11.9186C12.9983 10.8417 13.8713 9.96875 14.9482 9.96875C16.0251 9.96875 16.8981 10.8417 16.8981 11.9186C16.8981 12.9955 16.0251 13.8685 14.9482 13.8685Z" fill="white" style="fill:white;fill-opacity:1;"/>
<path d="M5.72113 11.8142C5.9038 11.8142 6.06752 11.7331 6.17821 11.6049C6.20917 11.7139 6.22574 11.8289 6.22574 11.9478C6.22574 12.6396 5.66497 13.2004 4.97322 13.2004C4.28147 13.2004 3.7207 12.6396 3.7207 11.9478C3.7207 11.2561 4.28147 10.6953 4.97322 10.6953C5.09844 10.6953 5.21937 10.7137 5.33346 10.7479C5.20144 10.8586 5.1175 11.0248 5.1175 11.2106C5.1175 11.544 5.38776 11.8142 5.72113 11.8142Z" fill="#1C004F" style="fill:#1C004F;fill:color(display-p3 0.1098 0.0000 0.3098);fill-opacity:1;"/>
<path d="M15.7236 11.8143C15.907 11.8143 16.0713 11.7325 16.182 11.6033C16.2137 11.713 16.2307 11.8289 16.2307 11.9488C16.2307 12.635 15.6744 13.1912 14.9882 13.1912C14.302 13.1912 13.7458 12.635 13.7458 11.9488C13.7458 11.2626 14.302 10.7063 14.9882 10.7063C15.1065 10.7063 15.2208 10.7228 15.3292 10.7537C15.2011 10.8644 15.12 11.028 15.12 11.2106C15.12 11.544 15.3902 11.8143 15.7236 11.8143Z" fill="#1C004F" style="fill:#1C004F;fill:color(display-p3 0.1098 0.0000 0.3098);fill-opacity:1;"/>
</g>
<defs>
<filter id="filter0_ii_3098_31175" x="1" y="1" width="17.9998" height="18.5207" filterUnits="userSpaceOnUse" color-interpolation-filters="sRGB">
<feFlood flood-opacity="0" result="BackgroundImageFix"/>
<feBlend mode="normal" in="SourceGraphic" in2="BackgroundImageFix" result="shape"/>
<feColorMatrix in="SourceAlpha" type="matrix" values="0 0 0 0 0 0 0 0 0 0 0 0 0 0 0 0 0 0 127 0" result="hardAlpha"/>
<feOffset dy="0.347136"/>
<feGaussianBlur stdDeviation="0.260352"/>
<feComposite in2="hardAlpha" operator="arithmetic" k2="-1" k3="1"/>
<feColorMatrix type="matrix" values="0 0 0 0 1 0 0 0 0 1 0 0 0 0 1 0 0 0 0.24 0"/>
<feBlend mode="overlay" in2="shape" result="effect1_innerShadow_3098_31175"/>
<feColorMatrix in="SourceAlpha" type="matrix" values="0 0 0 0 0 0 0 0 0 0 0 0 0 0 0 0 0 0 127 0" result="hardAlpha"/>
<feOffset dy="0.520704"/>
<feGaussianBlur stdDeviation="0.520704"/>
<feComposite in2="hardAlpha" operator="arithmetic" k2="-1" k3="1"/>
<feColorMatrix type="matrix" values="0 0 0 0 1 0 0 0 0 1 0 0 0 0 1 0 0 0 0.24 0"/>
<feBlend mode="overlay" in2="effect1_innerShadow_3098_31175" result="effect2_innerShadow_3098_31175"/>
</filter>
<filter id="filter1_dddddiiii_3098_31175" x="7.9595" y="14.4402" width="4.01898" height="3.55082" filterUnits="userSpaceOnUse" color-interpolation-filters="sRGB">
<feFlood flood-opacity="0" result="BackgroundImageFix"/>
<feColorMatrix in="SourceAlpha" type="matrix" values="0 0 0 0 0 0 0 0 0 0 0 0 0 0 0 0 0 0 127 0" result="hardAlpha"/>
<feOffset dy="0.043392"/>
<feGaussianBlur stdDeviation="0.021696"/>
<feComposite in2="hardAlpha" operator="out"/>
<feColorMatrix type="matrix" values="0 0 0 0 1 0 0 0 0 1 0 0 0 0 1 0 0 0 0.12 0"/>
<feBlend mode="plus-lighter" in2="BackgroundImageFix" result="effect1_dropShadow_3098_31175"/>
<feColorMatrix in="SourceAlpha" type="matrix" values="0 0 0 0 0 0 0 0 0 0 0 0 0 0 0 0 0 0 127 0" result="hardAlpha"/>
<feOffset dy="0.130176"/>
<feGaussianBlur stdDeviation="0.065088"/>
<feComposite in2="hardAlpha" operator="out"/>
<feColorMatrix type="matrix" values="0 0 0 0 1 0 0 0 0 1 0 0 0 0 1 0 0 0 0.32 0"/>
<feBlend mode="overlay" in2="effect1_dropShadow_3098_31175" result="effect2_dropShadow_3098_31175"/>
<feColorMatrix in="SourceAlpha" type="matrix" values="0 0 0 0 0 0 0 0 0 0 0 0 0 0 0 0 0 0 127 0" result="hardAlpha"/>
<feOffset dy="-0.043392"/>
<feGaussianBlur stdDeviation="0.021696"/>
<feComposite in2="hardAlpha" operator="out"/>
<feColorMatrix type="matrix" values="0 0 0 0 0 0 0 0 0 0 0 0 0 0 0 0 0 0 0.12 0"/>
<feBlend mode="plus-darker" in2="effect2_dropShadow_3098_31175" result="effect3_dropShadow_3098_31175"/>
<feColorMatrix in="SourceAlpha" type="matrix" values="0 0 0 0 0 0 0 0 0 0 0 0 0 0 0 0 0 0 127 0" result="hardAlpha"/>
<feOffset dy="-0.0867841"/>
<feGaussianBlur stdDeviation="0.043392"/>
<feComposite in2="hardAlpha" operator="out"/>
<feColorMatrix type="matrix" values="0 0 0 0 0 0 0 0 0 0 0 0 0 0 0 0 0 0 0.12 0"/>
<feBlend mode="plus-darker" in2="effect3_dropShadow_3098_31175" result="effect4_dropShadow_3098_31175"/>
<feColorMatrix in="SourceAlpha" type="matrix" values="0 0 0 0 0 0 0 0 0 0 0 0 0 0 0 0 0 0 127 0" result="hardAlpha"/>
<feOffset dy="-0.173568"/>
<feGaussianBlur stdDeviation="0.173568"/>
<feComposite in2="hardAlpha" operator="out"/>
<feColorMatrix type="matrix" values="0 0 0 0 0 0 0 0 0 0 0 0 0 0 0 0 0 0 0.12 0"/>
<feBlend mode="plus-darker" in2="effect4_dropShadow_3098_31175" result="effect5_dropShadow_3098_31175"/>
<feBlend mode="normal" in="SourceGraphic" in2="effect5_dropShadow_3098_31175" result="shape"/>
<feColorMatrix in="SourceAlpha" type="matrix" values="0 0 0 0 0 0 0 0 0 0 0 0 0 0 0 0 0 0 127 0" result="hardAlpha"/>
<feOffset dy="0.043392"/>
<feGaussianBlur stdDeviation="0.021696"/>
<feComposite in2="hardAlpha" operator="arithmetic" k2="-1" k3="1"/>
<feColorMatrix type="matrix" values="0 0 0 0 0.109804 0 0 0 0 0 0 0 0 0 0.309804 0 0 0 0.12 0"/>
<feBlend mode="normal" in2="shape" result="effect6_innerShadow_3098_31175"/>
<feColorMatrix in="SourceAlpha" type="matrix" values="0 0 0 0 0 0 0 0 0 0 0 0 0 0 0 0 0 0 127 0" result="hardAlpha"/>
<feOffset dy="0.130176"/>
<feGaussianBlur stdDeviation="0.065088"/>
<feComposite in2="hardAlpha" operator="arithmetic" k2="-1" k3="1"/>
<feColorMatrix type="matrix" values="0 0 0 0 0.109804 0 0 0 0 0 0 0 0 0 0.309804 0 0 0 0.12 0"/>
<feBlend mode="normal" in2="effect6_innerShadow_3098_31175" result="effect7_innerShadow_3098_31175"/>
<feColorMatrix in="SourceAlpha" type="matrix" values="0 0 0 0 0 0 0 0 0 0 0 0 0 0 0 0 0 0 127 0" result="hardAlpha"/>
<feOffset dy="0.520704"/>
<feGaussianBlur stdDeviation="0.520704"/>
<feComposite in2="hardAlpha" operator="arithmetic" k2="-1" k3="1"/>
<feColorMatrix type="matrix" values="0 0 0 0 0.109804 0 0 0 0 0 0 0 0 0 0.309804 0 0 0 0.12 0"/>
<feBlend mode="normal" in2="effect7_innerShadow_3098_31175" result="effect8_innerShadow_3098_31175"/>
<feColorMatrix in="SourceAlpha" type="matrix" values="0 0 0 0 0 0 0 0 0 0 0 0 0 0 0 0 0 0 127 0" result="hardAlpha"/>
<feOffset dy="1.73568"/>
<feGaussianBlur stdDeviation="1.04141"/>
<feComposite in2="hardAlpha" operator="arithmetic" k2="-1" k3="1"/>
<feColorMatrix type="matrix" values="0 0 0 0 0.109804 0 0 0 0 0 0 0 0 0 0.309804 0 0 0 0.32 0"/>
<feBlend mode="normal" in2="effect8_innerShadow_3098_31175" result="effect9_innerShadow_3098_31175"/>
</filter>
<filter id="filter2_ddddd_3098_31175" x="-0.618494" y="7.98566" width="21.2099" height="10.3541" filterUnits="userSpaceOnUse" color-interpolation-filters="sRGB">
<feFlood flood-opacity="0" result="BackgroundImageFix"/>
<feColorMatrix in="SourceAlpha" type="matrix" values="0 0 0 0 0 0 0 0 0 0 0 0 0 0 0 0 0 0 127 0" result="hardAlpha"/>
<feOffset dy="0.043392"/>
<feGaussianBlur stdDeviation="0.021696"/>
<feComposite in2="hardAlpha" operator="out"/>
<feColorMatrix type="matrix" values="0 0 0 0 0 0 0 0 0 0 0 0 0 0 0 0 0 0 0.08 0"/>
<feBlend mode="plus-darker" in2="BackgroundImageFix" result="effect1_dropShadow_3098_31175"/>
<feColorMatrix in="SourceAlpha" type="matrix" values="0 0 0 0 0 0 0 0 0 0 0 0 0 0 0 0 0 0 127 0" result="hardAlpha"/>
<feOffset dy="0.130176"/>
<feGaussianBlur stdDeviation="0.065088"/>
<feComposite in2="hardAlpha" operator="out"/>
<feColorMatrix type="matrix" values="0 0 0 0 0 0 0 0 0 0 0 0 0 0 0 0 0 0 0.06 0"/>
<feBlend mode="plus-darker" in2="effect1_dropShadow_3098_31175" result="effect2_dropShadow_3098_31175"/>
<feColorMatrix in="SourceAlpha" type="matrix" values="0 0 0 0 0 0 0 0 0 0 0 0 0 0 0 0 0 0 127 0" result="hardAlpha"/>
<feOffset dy="0.260352"/>
<feGaussianBlur stdDeviation="0.260352"/>
<feComposite in2="hardAlpha" operator="out"/>
<feColorMatrix type="matrix" values="0 0 0 0 0 0 0 0 0 0 0 0 0 0 0 0 0 0 0.04 0"/>
<feBlend mode="plus-darker" in2="effect2_dropShadow_3098_31175" result="effect3_dropShadow_3098_31175"/>
<feColorMatrix in="SourceAlpha" type="matrix" values="0 0 0 0 0 0 0 0 0 0 0 0 0 0 0 0 0 0 127 0" result="hardAlpha"/>
<feOffset dy="1.04141"/>
<feGaussianBlur stdDeviation="0.867841"/>
<feComposite in2="hardAlpha" operator="out"/>
<feColorMatrix type="matrix" values="0 0 0 0 0.292765 0 0 0 0 0 0 0 0 0 0.702637 0 0 0 0.12 0"/>
<feBlend mode="plus-darker" in2="effect3_dropShadow_3098_31175" result="effect4_dropShadow_3098_31175"/>
<feColorMatrix in="SourceAlpha" type="matrix" values="0 0 0 0 0 0 0 0 0 0 0 0 0 0 0 0 0 0 127 0" result="hardAlpha"/>
<feOffset dy="2.08282"/>
<feGaussianBlur stdDeviation="0.520704"/>
<feComposite in2="hardAlpha" operator="out"/>
<feColorMatrix type="matrix" values="0 0 0 0 0.292765 0 0 0 0 0 0 0 0 0 0.702637 0 0 0 0.24 0"/>
<feBlend mode="overlay" in2="effect4_dropShadow_3098_31175" result="effect5_dropShadow_3098_31175"/>
<feBlend mode="normal" in="SourceGraphic" in2="effect5_dropShadow_3098_31175" result="shape"/>
</filter>
<linearGradient id="paint0_linear_3098_31175" x1="9.99969" y1="4.15953" x2="9.99969" y2="17.612" gradientUnits="userSpaceOnUse">
<stop stop-color="#5652E3" style="stop-color:#5652E3;stop-color:color(display-p3 0.3387 0.3196 0.8918);stop-opacity:1;"/>
<stop offset="0.5" stop-color="#938DFF" style="stop-color:#938DFF;stop-color:color(display-p3 0.5766 0.5543 1.0000);stop-opacity:1;"/>
<stop offset="1" stop-color="#CAC0FF" style="stop-color:#CAC0FF;stop-color:color(display-p3 0.7913 0.7545 1.0000);stop-opacity:1;"/>
</linearGradient>
<linearGradient id="paint1_linear_3098_31175" x1="9.99969" y1="4.15953" x2="9.99969" y2="17.612" gradientUnits="userSpaceOnUse">
<stop stop-color="#5652E3" style="stop-color:#5652E3;stop-color:color(display-p3 0.3387 0.3196 0.8918);stop-opacity:1;"/>
<stop offset="0.5" stop-color="#938DFF" style="stop-color:#938DFF;stop-color:color(display-p3 0.5766 0.5543 1.0000);stop-opacity:1;"/>
<stop offset="1" stop-color="#CAC0FF" style="stop-color:#CAC0FF;stop-color:color(display-p3 0.7913 0.7545 1.0000);stop-opacity:1;"/>
</linearGradient>
<linearGradient id="paint2_linear_3098_31175" x1="9.98646" y1="8.67993" x2="9.98646" y2="15.2155" gradientUnits="userSpaceOnUse">
<stop stop-color="#7126FF" style="stop-color:#7126FF;stop-color:color(display-p3 0.4431 0.1490 1.0000);stop-opacity:1;"/>
<stop offset="1" stop-color="#621FFF" style="stop-color:#621FFF;stop-color:color(display-p3 0.3840 0.1200 1.0000);stop-opacity:1;"/>
</linearGradient>
<linearGradient id="paint3_linear_3098_31175" x1="18.8557" y1="11.9477" x2="1.11719" y2="11.9477" gradientUnits="userSpaceOnUse">
<stop offset="0.7" stop-opacity="0" style="stop-color:none;stop-opacity:0;"/>
<stop offset="0.95" style="stop-color:black;stop-opacity:1;"/>
</linearGradient>
<linearGradient id="paint4_linear_3098_31175" x1="18.8557" y1="11.9477" x2="1.11719" y2="11.9477" gradientUnits="userSpaceOnUse">
<stop offset="0.05" style="stop-color:black;stop-opacity:1;"/>
<stop offset="0.3" stop-opacity="0" style="stop-color:none;stop-opacity:0;"/>
</linearGradient>
<linearGradient id="paint5_linear_3098_31175" x1="18.8557" y1="11.9477" x2="1.11719" y2="11.9477" gradientUnits="userSpaceOnUse">
<stop offset="0.35" stop-opacity="0" style="stop-color:none;stop-opacity:0;"/>
<stop offset="0.5" style="stop-color:black;stop-opacity:1;"/>
<stop offset="0.65" stop-opacity="0" style="stop-color:none;stop-opacity:0;"/>
</linearGradient>
<linearGradient id="paint6_linear_3098_31175" x1="9.98646" y1="8.67993" x2="9.98646" y2="15.2155" gradientUnits="userSpaceOnUse">
<stop stop-color="#7126FF" style="stop-color:#7126FF;stop-color:color(display-p3 0.4431 0.1490 1.0000);stop-opacity:1;"/>
<stop offset="1" stop-color="#621FFF" style="stop-color:#621FFF;stop-color:color(display-p3 0.3840 0.1200 1.0000);stop-opacity:1;"/>
</linearGradient>
<linearGradient id="paint7_linear_3098_31175" x1="18.8557" y1="11.9477" x2="1.11719" y2="11.9477" gradientUnits="userSpaceOnUse">
<stop offset="0.7" stop-opacity="0" style="stop-color:none;stop-opacity:0;"/>
<stop offset="0.95" style="stop-color:black;stop-opacity:1;"/>
</linearGradient>
<linearGradient id="paint8_linear_3098_31175" x1="18.8557" y1="11.9477" x2="1.11719" y2="11.9477" gradientUnits="userSpaceOnUse">
<stop offset="0.05" style="stop-color:black;stop-opacity:1;"/>
<stop offset="0.3" stop-opacity="0" style="stop-color:none;stop-opacity:0;"/>
</linearGradient>
<linearGradient id="paint9_linear_3098_31175" x1="18.8557" y1="11.9477" x2="1.11719" y2="11.9477" gradientUnits="userSpaceOnUse">
<stop offset="0.35" stop-opacity="0" style="stop-color:none;stop-opacity:0;"/>
<stop offset="0.5" style="stop-color:black;stop-opacity:1;"/>
<stop offset="0.65" stop-opacity="0" style="stop-color:none;stop-opacity:0;"/>
</linearGradient>
<clipPath id="clip0_3098_31175">
<rect width="20" height="20" fill="white" style="fill:white;fill-opacity:1;"/>
</clipPath>
</defs>
</svg>
